<svg aria-hidden="true" style="position:absolute;width:0;height:0;overflow:hidden" xmlns="http://www.w3.org/2000/svg"><defs>
<symbol id="icon-closing-cross" viewBox="0 0 32 32"><path stroke-linejoin="miter" stroke-linecap="butt" stroke-miterlimit="4" stroke-width="2.1333" d="M8.533 8.533l14.933 14.933"></path><path stroke-linejoin="miter" stroke-linecap="butt" stroke-miterlimit="4" stroke-width="2.1333" d="M8.533 23.467l14.933-14.933"></path></symbol>
<symbol id="icon-heart" viewBox="0 0 32 32"><path d="m16 30.583-2.24-2.24C5.44 20.983 0 16.023 0 9.943c0-4.96 3.84-8.8 8.8-8.8 2.72 0 5.44 1.28 7.2 3.36 1.76-2.08 4.48-3.36 7.2-3.36 4.96 0 8.8 3.84 8.8 8.8 0 6.08-5.44 11.04-13.76 18.4L16 30.583z"/></symbol>
<symbol id="icon-logo" viewBox="0 0 32 32"><path fill="none" stroke="#818181" style="stroke:var(--color2, #818181)" stroke-linejoin="round" stroke-linecap="round" stroke-width="2.667" d="M26.427 2.667H5.574a2.907 2.907 0 0 0-2.907 2.907v20.853a2.907 2.907 0 0 0 2.907 2.907h20.853a2.907 2.907 0 0 0 2.907-2.907V5.574a2.907 2.907 0 0 0-2.907-2.907zM9.333 2.667v26.667M22.667 2.667v26.667M2.667 16h26.667M2.667 9.333h6.667M2.667 22.667h6.667M22.667 22.667h6.667M22.667 9.333h6.667"/></symbol>
<symbol id="icon-search" viewBox="0 0 32 32"><path fill="none" stroke="#fff" style="stroke:var(--color3, #fff)" stroke-linejoin="round" stroke-linecap="round" stroke-width="2.667" d="M14.667 25.333c5.891 0 10.667-4.776 10.667-10.667S20.558 3.999 14.667 3.999 4 8.775 4 14.666s4.776 10.667 10.667 10.667zM28 28.001l-5.8-5.8"/></symbol>
<symbol id="icon-to-top-arrow" viewBox="0 0 32 32"><path d="M28 0h-24c-2.209 0-4 1.791-4 4v24c0 2.209 1.791 4 4 4h24c2.209 0 4-1.791 4-4v-24c0-2.209-1.791-4-4-4zM30 28c0 1.104-0.895 2-2 2h-24c-1.105 0-2-0.896-2-2v-24c0-1.105 0.896-2 2-2h24c1.105 0 2 0.895 2 2v24zM16.879 8.464c-0.24-0.239-0.569-0.314-0.879-0.259-0.31-0.055-0.639 0.020-0.879 0.26l-5.657 5.657c-0.391 0.39-0.391 1.024 0 1.414s1.024 0.391 1.414 0l4.122-4.122v10.586c0 0.552 0.448 1 1 1s1-0.448 1-1v-10.586l4.121 4.121c0.391 0.391 1.024 0.391 1.414 0 0.391-0.391 0.391-1.024 0-1.414l-5.656-5.657z"></path></symbol></defs></svg>